<svg width="27" height="27" viewBox="0 0 27 27" fill="none" xmlns="http://www.w3.org/2000/svg">
<path d="M17.82 13.7983C17.82 14.6211 17.5666 15.4254 17.0919 16.1095C16.6173 16.7936 15.9426 17.3268 15.1532 17.6417C14.3638 17.9565 13.4952 18.0389 12.6572 17.8784C11.8192 17.7179 11.0495 17.3217 10.4453 16.7399C9.84114 16.1581 9.4297 15.4169 9.26301 14.6099C9.09632 13.803 9.18187 12.9665 9.50884 12.2064C9.83581 11.4462 10.3895 10.7965 11.0999 10.3394C11.8104 9.88232 12.6456 9.63834 13.5 9.63834C14.6446 9.64177 15.7414 10.0812 16.5508 10.8606C17.3602 11.64 17.8164 12.6961 17.82 13.7983ZM27 8.07834V19.5183C27 21.4491 26.2035 23.3008 24.7857 24.6661C23.368 26.0313 21.445 26.7983 19.44 26.7983H7.56C5.55496 26.7983 3.63205 26.0313 2.21427 24.6661C0.796498 23.3008 0 21.4491 0 19.5183V8.07834C0 6.14756 0.796498 4.29587 2.21427 2.9306C3.63205 1.56534 5.55496 0.79834 7.56 0.79834H19.44C21.445 0.79834 23.368 1.56534 24.7857 2.9306C26.2035 4.29587 27 6.14756 27 8.07834ZM19.98 13.7983C19.98 12.5642 19.6 11.3577 18.8879 10.3316C18.1759 9.30542 17.1639 8.50562 15.9798 8.03333C14.7957 7.56104 13.4928 7.43747 12.2358 7.67824C10.9788 7.91901 9.82419 8.51331 8.91795 9.38599C8.0117 10.2587 7.39454 11.3705 7.14451 12.581C6.89448 13.7914 7.02281 15.0461 7.51326 16.1863C8.00372 17.3265 8.83427 18.301 9.89991 18.9867C10.9655 19.6724 12.2184 20.0383 13.5 20.0383C15.2186 20.0383 16.8668 19.3809 18.0821 18.2107C19.2973 17.0405 19.98 15.4533 19.98 13.7983ZM22.14 7.03834C22.14 6.7298 22.045 6.42819 21.867 6.17165C21.689 5.91511 21.436 5.71516 21.1399 5.59709C20.8439 5.47901 20.5182 5.44812 20.204 5.50831C19.8897 5.56851 19.601 5.71708 19.3745 5.93525C19.1479 6.15342 18.9936 6.43139 18.9311 6.734C18.8686 7.03661 18.9007 7.35027 19.0233 7.63533C19.1459 7.92038 19.3536 8.16402 19.62 8.33543C19.8864 8.50685 20.1996 8.59834 20.52 8.59834C20.9497 8.59834 21.3617 8.43398 21.6655 8.14143C21.9693 7.84887 22.14 7.45208 22.14 7.03834Z" fill="white"/>
</svg>
